<?xml version="1.0" standalone="no"?><!DOCTYPE svg PUBLIC "-//W3C//DTD SVG 1.1//EN" "http://www.w3.org/Graphics/SVG/1.1/DTD/svg11.dtd"><svg t="1752042712789" class="icon" viewBox="0 0 1024 1024" version="1.1" xmlns="http://www.w3.org/2000/svg" p-id="1044" xmlns:xlink="http://www.w3.org/1999/xlink" width="256" height="256"><path d="M851.03616 834.06848c-180.17536 193.48992-483.09248 204.28544-676.5824 24.11264-193.49248-180.17536-204.288-483.09248-24.1152-676.5824 180.17536-193.49248 483.09248-204.288 676.58496-24.1152 193.49248 180.17536 204.288 483.09248 24.11264 676.58496z" fill="#AA6F44" p-id="1045"></path><path d="M699.71712 645.76512c-116.30592 174.57408-346.1504 260.99712-521.2672 144.32768-155.0848-103.3216-170.2656-352.99328-53.95968-527.5648C240.79872 87.95392 466.21952 22.06464 621.30432 125.3888c174.05184 115.95776 194.72128 345.8048 78.4128 520.37632z" fill="#FFFFFF" p-id="1046"></path><path d="M647.41888 613.01504c-95.54688 143.41632-284.36736 214.41536-428.23168 118.56896-127.40352-84.88192-139.87584-289.99168-44.3264-433.40544 95.54688-143.41376 280.73472-197.54496 408.1408-112.6656 142.98624 95.26528 159.96672 284.08832 64.41728 427.50208z" fill="#F2EDDF" p-id="1047"></path><path d="M219.1872 731.584c143.86432 95.8464 332.6848 24.84736 428.23168-118.56896C373.76 731.584 174.8608 441.6 385.28 151.69024c-80.81408 17.45408-158.7328 68.90752-210.4192 146.48832C79.3088 441.59232 91.78368 646.70208 219.1872 731.584z" fill="#E5DDC7" p-id="1048"></path></svg>